<?xml version="1.0" encoding="UTF-8" standalone="no"?><svg xmlns:svg="http://www.w3.org/2000/svg" xmlns="http://www.w3.org/2000/svg" xmlns:xlink="http://www.w3.org/1999/xlink" version="1.0" width="64px" height="64px" viewBox="0 0 128 128" xml:space="preserve"><g><path d="M76.34 52.05l-43.6-43.6a63.42 63.42 0 0 1 29.7-8.2z" fill="#ffb600"/><path d="M76.34 52.05l-43.6-43.6a63.42 63.42 0 0 1 29.7-8.2z" fill="#ffeec4" transform="rotate(30 64 64)"/><path d="M76.34 52.05l-43.6-43.6a63.42 63.42 0 0 1 29.7-8.2z" fill="#ffe9b2" transform="rotate(60 64 64)"/><path d="M76.34 52.05l-43.6-43.6a63.42 63.42 0 0 1 29.7-8.2z" fill="#ffe4a1" transform="rotate(90 64 64)"/><path d="M76.34 52.05l-43.6-43.6a63.42 63.42 0 0 1 29.7-8.2z" fill="#ffdf8f" transform="rotate(120 64 64)"/><path d="M76.34 52.05l-43.6-43.6a63.42 63.42 0 0 1 29.7-8.2z" fill="#ffda7d" transform="rotate(150 64 64)"/><path d="M76.34 52.05l-43.6-43.6a63.42 63.42 0 0 1 29.7-8.2z" fill="#ffd56b" transform="rotate(180 64 64)"/><path d="M76.34 52.05l-43.6-43.6a63.42 63.42 0 0 1 29.7-8.2z" fill="#ffcf59" transform="rotate(210 64 64)"/><path d="M76.34 52.05l-43.6-43.6a63.42 63.42 0 0 1 29.7-8.2z" fill="#ffca47" transform="rotate(240 64 64)"/><path d="M76.34 52.05l-43.6-43.6a63.42 63.42 0 0 1 29.7-8.2z" fill="#ffc536" transform="rotate(270 64 64)"/><path d="M76.34 52.05l-43.6-43.6a63.42 63.42 0 0 1 29.7-8.2z" fill="#ffc024" transform="rotate(300 64 64)"/><path d="M76.34 52.05l-43.6-43.6a63.42 63.42 0 0 1 29.7-8.2z" fill="#ffbb12" transform="rotate(330 64 64)"/><animateTransform attributeName="transform" type="rotate" values="0 64 64;30 64 64;60 64 64;90 64 64;120 64 64;150 64 64;180 64 64;210 64 64;240 64 64;270 64 64;300 64 64;330 64 64" calcMode="discrete" dur="1080ms" repeatCount="indefinite"></animateTransform></g></svg>